<?xml version="1.0" encoding="UTF-8"?>
<svg xmlns="http://www.w3.org/2000/svg" xmlns:xlink="http://www.w3.org/1999/xlink" width="18px" height="18px" viewBox="0 0 18 18" version="1.1">
<g id="surface1">
<path style=" stroke:none;fill-rule:nonzero;fill:rgb(0%,0%,0%);fill-opacity:1;" d="M 10.589844 9 L 17.671875 1.921875 C 18.109375 1.480469 18.109375 0.769531 17.671875 0.328125 C 17.230469 -0.109375 16.519531 -0.109375 16.078125 0.328125 L 9 7.410156 L 1.921875 0.328125 C 1.480469 -0.109375 0.769531 -0.109375 0.328125 0.328125 C -0.109375 0.769531 -0.109375 1.480469 0.328125 1.921875 L 7.410156 9 L 0.328125 16.078125 C -0.109375 16.519531 -0.109375 17.230469 0.328125 17.671875 C 0.769531 18.109375 1.480469 18.109375 1.921875 17.671875 L 9 10.589844 L 16.078125 17.671875 C 16.519531 18.109375 17.230469 18.109375 17.671875 17.671875 C 18.109375 17.230469 18.109375 16.519531 17.671875 16.078125 Z M 10.589844 9 "/>
</g>
</svg>
