<?xml version="1.0" encoding="UTF-8"?>
<svg xmlns="http://www.w3.org/2000/svg" xmlns:xlink="http://www.w3.org/1999/xlink" width="20px" height="20px" viewBox="0 0 20 20" version="1.1">
<g id="surface1">
<path style=" stroke:none;fill-rule:nonzero;fill:rgb(0%,0%,0%);fill-opacity:1;" d="M 10 2.824219 C 10.253906 2.824219 10.496094 2.714844 10.660156 2.523438 C 10.769531 2.402344 10.753906 2.21875 10.632812 2.109375 C 10.511719 2.003906 10.324219 2.015625 10.21875 2.140625 C 10.164062 2.203125 10.085938 2.238281 10 2.238281 C 9.914062 2.238281 9.835938 2.203125 9.78125 2.140625 C 9.675781 2.015625 9.488281 2.003906 9.367188 2.109375 C 9.246094 2.21875 9.230469 2.402344 9.339844 2.523438 C 9.503906 2.714844 9.746094 2.824219 10 2.824219 Z M 10 2.824219 "/>
<path style=" stroke:none;fill-rule:nonzero;fill:rgb(0%,0%,0%);fill-opacity:1;" d="M 11.671875 2.613281 C 11.832031 2.613281 11.964844 2.480469 11.964844 2.320312 L 11.964844 2.042969 C 11.964844 1.878906 11.832031 1.75 11.671875 1.75 C 11.507812 1.75 11.378906 1.878906 11.378906 2.042969 L 11.378906 2.320312 C 11.378906 2.480469 11.507812 2.613281 11.671875 2.613281 Z M 11.671875 2.613281 "/>
<path style=" stroke:none;fill-rule:nonzero;fill:rgb(0%,0%,0%);fill-opacity:1;" d="M 16.152344 5.839844 L 16.078125 5.839844 L 15.539062 3 C 15.363281 2.070312 14.847656 1.28125 14.136719 0.742188 C 14.125 0.734375 14.113281 0.726562 14.101562 0.71875 C 13.488281 0.265625 12.730469 0 11.921875 0 L 8.078125 0 C 7.269531 0 6.515625 0.265625 5.898438 0.71875 C 5.886719 0.726562 5.875 0.734375 5.863281 0.742188 C 5.152344 1.28125 4.636719 2.070312 4.460938 3 L 3.921875 5.839844 L 3.847656 5.839844 C 3.222656 5.839844 2.714844 6.347656 2.714844 6.96875 L 2.714844 8.09375 C 2.714844 8.714844 3.222656 9.222656 3.847656 9.222656 L 4.15625 9.222656 L 5.257812 18.523438 C 5.355469 19.367188 6.070312 20 6.917969 20 L 13.082031 20 C 13.507812 20 13.910156 19.839844 14.222656 19.550781 C 14.339844 19.441406 14.347656 19.253906 14.238281 19.136719 C 14.125 19.019531 13.941406 19.011719 13.824219 19.121094 C 13.621094 19.3125 13.359375 19.414062 13.082031 19.414062 L 12.632812 19.414062 L 12.71875 18.125 C 12.730469 17.960938 12.609375 17.820312 12.449219 17.8125 C 12.285156 17.800781 12.144531 17.921875 12.136719 18.082031 L 12.042969 19.414062 L 10.292969 19.414062 L 10.292969 18.101562 C 10.292969 17.941406 10.160156 17.808594 10 17.808594 C 9.839844 17.808594 9.707031 17.941406 9.707031 18.101562 L 9.707031 19.414062 L 7.957031 19.414062 L 7.863281 18.082031 C 7.855469 17.921875 7.714844 17.800781 7.550781 17.8125 C 7.390625 17.820312 7.269531 17.960938 7.28125 18.125 L 7.371094 19.414062 L 6.917969 19.414062 C 6.367188 19.414062 5.902344 19.003906 5.839844 18.457031 L 5.6875 17.175781 L 14.3125 17.175781 L 14.203125 18.117188 C 14.183594 18.277344 14.296875 18.421875 14.457031 18.441406 C 14.46875 18.441406 14.480469 18.441406 14.492188 18.441406 C 14.640625 18.441406 14.765625 18.332031 14.785156 18.183594 L 15.84375 9.222656 L 16.152344 9.222656 C 16.777344 9.222656 17.285156 8.714844 17.285156 8.09375 L 17.285156 6.96875 C 17.285156 6.347656 16.777344 5.839844 16.152344 5.839844 Z M 8.078125 0.585938 L 11.921875 0.585938 C 12.542969 0.585938 13.128906 0.773438 13.621094 1.097656 L 13.042969 3.992188 C 12.972656 4.347656 12.65625 4.609375 12.292969 4.609375 L 7.707031 4.609375 C 7.34375 4.609375 7.027344 4.347656 6.957031 3.992188 L 6.378906 1.097656 C 6.871094 0.773438 7.457031 0.585938 8.078125 0.585938 Z M 14.382812 16.589844 L 5.617188 16.589844 L 4.746094 9.222656 L 15.253906 9.222656 Z M 16.699219 8.09375 C 16.699219 8.394531 16.453125 8.636719 16.152344 8.636719 L 3.847656 8.636719 C 3.546875 8.636719 3.300781 8.394531 3.300781 8.09375 L 3.300781 6.96875 C 3.300781 6.667969 3.546875 6.425781 3.847656 6.425781 L 5.628906 6.425781 C 5.792969 6.425781 5.921875 6.292969 5.921875 6.132812 C 5.921875 5.96875 5.792969 5.839844 5.628906 5.839844 L 4.515625 5.839844 L 5.035156 3.105469 C 5.152344 2.488281 5.449219 1.945312 5.863281 1.519531 L 6.378906 4.105469 C 6.507812 4.738281 7.0625 5.195312 7.707031 5.195312 L 12.292969 5.195312 C 12.9375 5.195312 13.492188 4.738281 13.621094 4.105469 L 14.136719 1.519531 C 14.550781 1.945312 14.847656 2.488281 14.964844 3.105469 L 15.484375 5.839844 L 7.011719 5.839844 C 6.847656 5.839844 6.71875 5.96875 6.71875 6.132812 C 6.71875 6.292969 6.847656 6.425781 7.011719 6.425781 L 16.152344 6.425781 C 16.453125 6.425781 16.699219 6.667969 16.699219 6.96875 Z M 16.699219 8.09375 "/>
<path style=" stroke:none;fill-rule:nonzero;fill:rgb(0%,0%,0%);fill-opacity:1;" d="M 7.675781 14.386719 C 7.8125 14.617188 8.050781 14.757812 8.316406 14.757812 L 9.332031 14.757812 C 9.496094 14.757812 9.625 14.625 9.625 14.464844 C 9.625 14.300781 9.496094 14.171875 9.332031 14.171875 L 8.316406 14.171875 C 8.238281 14.171875 8.199219 14.117188 8.183594 14.09375 C 8.171875 14.070312 8.144531 14.011719 8.183594 13.941406 L 8.636719 13.160156 L 8.648438 13.25 C 8.664062 13.398438 8.792969 13.507812 8.9375 13.507812 C 8.949219 13.507812 8.960938 13.507812 8.972656 13.503906 C 9.132812 13.484375 9.25 13.339844 9.230469 13.179688 L 9.140625 12.417969 C 9.128906 12.308594 9.074219 12.210938 8.992188 12.136719 C 9.113281 12.164062 9.242188 12.109375 9.308594 11.996094 L 9.867188 11.027344 C 9.90625 10.957031 9.972656 10.949219 10 10.949219 C 10.027344 10.949219 10.09375 10.957031 10.132812 11.027344 L 10.585938 11.8125 L 10.5 11.773438 C 10.351562 11.710938 10.179688 11.78125 10.117188 11.929688 C 10.050781 12.078125 10.121094 12.25 10.269531 12.3125 L 10.972656 12.617188 C 11.03125 12.640625 11.089844 12.652344 11.152344 12.652344 C 11.199219 12.652344 11.246094 12.644531 11.292969 12.628906 C 11.207031 12.71875 11.1875 12.859375 11.253906 12.972656 L 11.816406 13.941406 C 11.855469 14.011719 11.828125 14.070312 11.816406 14.09375 C 11.800781 14.117188 11.761719 14.171875 11.683594 14.171875 L 10.777344 14.171875 L 10.851562 14.117188 C 10.980469 14.019531 11.007812 13.835938 10.910156 13.707031 C 10.8125 13.578125 10.628906 13.550781 10.5 13.648438 L 9.886719 14.105469 C 9.78125 14.183594 9.71875 14.300781 9.710938 14.429688 C 9.707031 14.441406 9.707031 14.453125 9.707031 14.464844 C 9.707031 14.472656 9.707031 14.484375 9.710938 14.496094 C 9.71875 14.625 9.78125 14.746094 9.886719 14.820312 L 10.5 15.28125 C 10.554688 15.320312 10.613281 15.339844 10.675781 15.339844 C 10.765625 15.339844 10.851562 15.296875 10.910156 15.21875 C 11.007812 15.089844 10.980469 14.90625 10.851562 14.808594 L 10.777344 14.757812 L 11.683594 14.757812 C 11.949219 14.757812 12.1875 14.617188 12.324219 14.386719 C 12.457031 14.15625 12.457031 13.878906 12.324219 13.648438 L 11.8125 12.769531 L 11.761719 12.679688 C 11.695312 12.566406 11.566406 12.511719 11.445312 12.539062 C 11.527344 12.46875 11.582031 12.367188 11.59375 12.257812 L 11.683594 11.496094 C 11.703125 11.335938 11.589844 11.191406 11.425781 11.171875 C 11.265625 11.152344 11.121094 11.265625 11.101562 11.425781 L 11.089844 11.515625 L 10.640625 10.734375 C 10.503906 10.503906 10.265625 10.363281 10 10.363281 C 9.734375 10.363281 9.496094 10.503906 9.359375 10.734375 L 8.800781 11.703125 C 8.734375 11.816406 8.753906 11.957031 8.839844 12.046875 C 8.734375 12.015625 8.621094 12.015625 8.519531 12.0625 L 7.816406 12.363281 C 7.667969 12.425781 7.597656 12.597656 7.664062 12.746094 C 7.726562 12.898438 7.898438 12.964844 8.046875 12.902344 L 8.128906 12.867188 L 7.675781 13.648438 C 7.542969 13.878906 7.542969 14.15625 7.675781 14.386719 Z M 7.675781 14.386719 "/>
<path style=" stroke:none;fill-rule:nonzero;fill:rgb(0%,0%,0%);fill-opacity:1;" d="M 8.328125 2.613281 C 8.492188 2.613281 8.621094 2.480469 8.621094 2.320312 L 8.621094 2.042969 C 8.621094 1.878906 8.492188 1.75 8.328125 1.75 C 8.167969 1.75 8.035156 1.878906 8.035156 2.042969 L 8.035156 2.320312 C 8.035156 2.480469 8.167969 2.613281 8.328125 2.613281 Z M 8.328125 2.613281 "/>
</g>
</svg>
