<?xml version="1.0" encoding="UTF-8"?>
<svg xmlns="http://www.w3.org/2000/svg" xmlns:xlink="http://www.w3.org/1999/xlink" width="20px" height="20px" viewBox="0 0 20 20" version="1.1">
<g id="surface1">
<path style=" stroke:none;fill-rule:nonzero;fill:rgb(0%,0%,0%);fill-opacity:1;" d="M 15.546875 0.773438 L 5.386719 10.933594 C 4.601562 11.714844 4.164062 12.773438 4.167969 13.878906 L 4.167969 15 C 4.167969 15.460938 4.539062 15.832031 5 15.832031 L 6.121094 15.832031 C 7.226562 15.835938 8.285156 15.398438 9.066406 14.613281 L 19.226562 4.453125 C 20.238281 3.4375 20.238281 1.792969 19.226562 0.773438 C 18.195312 -0.207031 16.574219 -0.207031 15.546875 0.773438 Z M 18.046875 3.273438 L 7.886719 13.433594 C 7.417969 13.902344 6.78125 14.164062 6.121094 14.167969 L 5.832031 14.167969 L 5.832031 13.878906 C 5.835938 13.21875 6.097656 12.582031 6.566406 12.113281 L 16.726562 1.953125 C 17.09375 1.601562 17.675781 1.601562 18.046875 1.953125 C 18.410156 2.320312 18.410156 2.910156 18.046875 3.273438 Z M 18.046875 3.273438 "/>
<path style=" stroke:none;fill-rule:nonzero;fill:rgb(0%,0%,0%);fill-opacity:1;" d="M 19.167969 7.484375 C 18.707031 7.484375 18.332031 7.855469 18.332031 8.316406 L 18.332031 12.5 L 15 12.5 C 13.621094 12.5 12.5 13.621094 12.5 15 L 12.5 18.332031 L 4.167969 18.332031 C 2.785156 18.332031 1.667969 17.214844 1.667969 15.832031 L 1.667969 4.167969 C 1.667969 2.785156 2.785156 1.667969 4.167969 1.667969 L 11.703125 1.667969 C 12.160156 1.667969 12.535156 1.292969 12.535156 0.832031 C 12.535156 0.375 12.160156 0 11.703125 0 L 4.167969 0 C 1.867188 0.00390625 0.00390625 1.867188 0 4.167969 L 0 15.832031 C 0.00390625 18.132812 1.867188 19.996094 4.167969 20 L 13.621094 20 C 14.726562 20.003906 15.785156 19.5625 16.566406 18.78125 L 18.777344 16.566406 C 19.5625 15.785156 20.003906 14.726562 20 13.621094 L 20 8.316406 C 20 7.855469 19.625 7.484375 19.167969 7.484375 Z M 15.386719 17.601562 C 15.050781 17.9375 14.628906 18.167969 14.167969 18.269531 L 14.167969 15 C 14.167969 14.539062 14.539062 14.167969 15 14.167969 L 18.269531 14.167969 C 18.167969 14.628906 17.9375 15.050781 17.605469 15.386719 Z M 15.386719 17.601562 "/>
</g>
</svg>
